# xmcd
#
# Track frame offsets: 
#        150
#        20543
#        36746
#        54146
#        76221
#        90996
#        110768
#        140056
#        160202
#        183247
#        206102
#        227422
#        251178
#        272880
#        294172
#        312959
#        334152
#
# Disc length: 4746 seconds
#
# Revision: 0
# Processed by: cddbd v1.5.2PL0 Copyright (c) Steve Scherf et al.
# Submitted via: ExactAudioCopy v1.0b1
#
DISCID=f1128811
DTITLE=Julma Henri and RPK - Henri
DYEAR=2011
DGENRE=Hip-Hop
TTITLE0=Kutsu
TTITLE1=Mielen Muutos
TTITLE2=Yksi
TTITLE3=Kaikki Vs. Kaikki
TTITLE4=Pelko
TTITLE5=Halu
TTITLE6=Pilvien Yläpuolella
TTITLE7=Kuivaa Maata
TTITLE8=Sanoihin Takertujat
TTITLE9=Totuuden Tie
TTITLE10=Suurin Ajatus
TTITLE11=Vapaa
TTITLE12=Naurua Ja Valoa
TTITLE13=Punaiselle
TTITLE14=Ongelma Ristii Kädet
TTITLE15=Jumala On Kuollu
TTITLE16=Pala
EXTD=
EXTT0=
EXTT1=
EXTT2=
EXTT3=
EXTT4=
EXTT5=
EXTT6=
EXTT7=
EXTT8=
EXTT9=
EXTT10=
EXTT11=
EXTT12=
EXTT13=
EXTT14=
EXTT15=
EXTT16=
PLAYORDER=
